<svg width="24" height="24" viewBox="0 0 24 24" fill="none" xmlns="http://www.w3.org/2000/svg">
<path d="M16.0909 19.727V18.0906C16.0909 17.2226 15.7461 16.3902 15.1324 15.7764C14.5186 15.1627 13.6862 14.8179 12.8182 14.8179H6.27273C5.40475 14.8179 4.57232 15.1627 3.95856 15.7764C3.3448 16.3902 3 17.2226 3 18.0906V19.727" stroke="white" stroke-width="1.5" stroke-linecap="round" stroke-linejoin="round"/>
<path d="M9.54568 11.5455C11.3532 11.5455 12.8184 10.0802 12.8184 8.27273C12.8184 6.46525 11.3532 5 9.54568 5C7.7382 5 6.27295 6.46525 6.27295 8.27273C6.27295 10.0802 7.7382 11.5455 9.54568 11.5455Z" stroke="white" stroke-width="1.5" stroke-linecap="round" stroke-linejoin="round"/>
<path d="M21 19.7273V18.0909C20.9994 17.3658 20.7581 16.6614 20.3138 16.0883C19.8695 15.5152 19.2475 15.1058 18.5454 14.9246" stroke="white" stroke-width="1.5" stroke-linecap="round" stroke-linejoin="round"/>
<path d="M15.2729 5.10596C15.9769 5.2862 16.6009 5.69562 17.0465 6.26967C17.4921 6.84371 17.7339 7.54973 17.7339 8.27641C17.7339 9.0031 17.4921 9.70911 17.0465 10.2832C16.6009 10.8572 15.9769 11.2666 15.2729 11.4469" stroke="white" stroke-width="1.5" stroke-linecap="round" stroke-linejoin="round"/>
</svg>
