<svg width="20" height="20" viewBox="0 0 20 20" fill="none" xmlns="http://www.w3.org/2000/svg">
<path d="M9.1665 3.33325H3.33317C2.89114 3.33325 2.46722 3.50885 2.15466 3.82141C1.8421 4.13397 1.6665 4.55789 1.6665 4.99992V16.6666C1.6665 17.1086 1.8421 17.5325 2.15466 17.8451C2.46722 18.1577 2.89114 18.3333 3.33317 18.3333H14.9998C15.4419 18.3333 15.8658 18.1577 16.1783 17.8451C16.4909 17.5325 16.6665 17.1086 16.6665 16.6666V10.8333" stroke="#374952" stroke-width="2" stroke-linecap="round" stroke-linejoin="round"/>
<path d="M15.4165 2.08344C15.748 1.75192 16.1977 1.56567 16.6665 1.56567C17.1353 1.56567 17.585 1.75192 17.9165 2.08344C18.248 2.41496 18.4343 2.8646 18.4343 3.33344C18.4343 3.80228 18.248 4.25192 17.9165 4.58344L9.99984 12.5001L6.6665 13.3334L7.49984 10.0001L15.4165 2.08344Z" stroke="#374952" stroke-width="2" stroke-linecap="round" stroke-linejoin="round"/>
</svg>
