<svg width="135" height="32" viewBox="0 0 135 32" fill="none" xmlns="http://www.w3.org/2000/svg">
<path d="M23.5193 0H7.83938C6.79923 0.0105222 5.77134 0.225827 4.81441 0.63362C3.85747 1.04141 2.99024 1.63371 2.26222 2.37668C1.53421 3.11965 0.959669 3.99875 0.571418 4.96378C0.183167 5.92881 -0.0111927 6.96086 -0.000562965 8.00101V23.999C-0.0209603 26.0993 0.793345 28.1219 2.26341 29.6222C3.73348 31.1224 5.73904 31.9777 7.83938 32H23.5193C25.6196 31.9777 27.6251 31.1224 29.0952 29.6222C30.5653 28.1219 31.3796 26.0993 31.3592 23.999V8.00101C31.3698 6.96086 31.1755 5.92881 30.7872 4.96378C30.399 3.99875 29.8244 3.11965 29.0964 2.37668C28.3684 1.63371 27.5012 1.04141 26.5442 0.63362C25.5873 0.225827 24.5594 0.0105222 23.5193 0V0ZM23.5193 2.35963C24.9988 2.37663 26.4112 2.97961 27.4468 4.03637C28.4824 5.09313 29.0567 6.51742 29.0439 7.99698V23.999C29.0567 25.4785 28.4824 26.9028 27.4468 27.9596C26.4112 29.0164 24.9988 29.6193 23.5193 29.6363H7.83938C6.3595 29.6193 4.94668 29.0165 3.91042 27.9598C2.87416 26.9032 2.29893 25.4789 2.31075 23.999V8.00101C2.29893 6.52108 2.87416 5.09679 3.91042 4.04015C4.94668 2.98351 6.3595 2.38066 7.83938 2.36366L23.5193 2.35963Z" fill="#FCFCFC"/>
<path d="M46.3792 11.6775C47.3295 12.5177 47.8046 13.7888 47.8046 15.4907V22.0139H44.6961V20.5764C44.0706 21.6502 42.9096 22.1804 41.213 22.167C40.4303 22.1927 39.6514 22.0485 38.9299 21.7442C38.3246 21.4798 37.8096 21.0446 37.448 20.4919C37.1055 19.9591 36.9277 19.3373 36.9366 18.704C36.9185 18.2191 37.0191 17.7371 37.2296 17.2999C37.4401 16.8627 37.7543 16.4836 38.1447 16.1954C38.95 15.586 40.1862 15.2827 41.8532 15.2854H44.4907C44.5098 14.9754 44.4606 14.6651 44.3465 14.3763C44.2324 14.0876 44.0562 13.8274 43.8303 13.6143C43.2642 13.1857 42.5613 12.9781 41.8532 13.0304C41.2433 13.0313 40.6373 13.1277 40.0573 13.3163C39.5159 13.4846 39.0088 13.7478 38.5594 14.0935L37.3514 11.7781C38.0332 11.3107 38.7906 10.9647 39.5902 10.7554C40.4669 10.5165 41.3715 10.396 42.28 10.397C44.0652 10.397 45.4316 10.8238 46.3792 11.6775ZM43.5605 19.5617C44.0012 19.2989 44.3338 18.8878 44.4987 18.402V17.2343H42.2237C40.8627 17.2343 40.1822 17.6799 40.1822 18.5711C40.1782 18.7638 40.2203 18.9545 40.3051 19.1276C40.3898 19.3006 40.5147 19.4508 40.6694 19.5657C41.0748 19.8349 41.5567 19.9649 42.0425 19.9362C42.5721 19.947 43.0945 19.8118 43.5525 19.5456L43.5605 19.5617Z" fill="#FCFCFC"/>
<path d="M52.3188 21.4138C51.3816 20.9409 50.5951 20.2158 50.0478 19.32C49.4994 18.4037 49.2202 17.3515 49.2425 16.2838C49.2201 15.215 49.4992 14.1614 50.0478 13.2437C50.5951 12.3479 51.3816 11.6227 52.3188 11.1498C53.3368 10.6361 54.4645 10.3777 55.6046 10.3968C56.703 10.3705 57.7895 10.63 58.7575 11.1498C59.6357 11.6301 60.3286 12.3896 60.7265 13.3081L58.1535 14.6893C57.9169 14.2082 57.5481 13.8045 57.0902 13.5256C56.6323 13.2468 56.1044 13.1043 55.5684 13.1149C55.1717 13.1036 54.7769 13.1731 54.408 13.3192C54.039 13.4653 53.7036 13.6848 53.4221 13.9645C53.1315 14.2739 52.9064 14.6388 52.7604 15.0374C52.6144 15.436 52.5505 15.8599 52.5725 16.2838C52.5508 16.7071 52.6149 17.1304 52.7609 17.5283C52.9069 17.9262 53.1318 18.2904 53.4221 18.5992C53.7031 18.8796 54.0384 19.0997 54.4074 19.2458C54.7765 19.3919 55.1716 19.461 55.5684 19.4488C56.1033 19.462 56.6307 19.3205 57.0872 19.0412C57.5436 18.7619 57.9097 18.3567 58.1414 17.8744L60.7145 19.2797C60.3049 20.1824 59.6141 20.9283 58.7454 21.4058C57.7789 21.9302 56.6919 22.1926 55.5925 22.1668C54.4565 22.184 53.3332 21.9257 52.3188 21.4138Z" fill="#FCFCFC"/>
<path d="M70.9017 11.6775C71.852 12.5177 72.3271 13.7888 72.3271 15.4907V22.0139H69.2226V20.5764C68.6025 21.6502 67.4414 22.1804 65.7395 22.167C64.9553 22.187 64.1762 22.0359 63.4564 21.724C62.855 21.4648 62.3417 21.0368 61.9786 20.4919C61.6361 19.9591 61.4582 19.3373 61.4672 18.704C61.4501 18.2193 61.5511 17.7376 61.7616 17.3006C61.972 16.8636 62.2856 16.4843 62.6752 16.1954C63.4805 15.586 64.7167 15.2827 66.3838 15.2854H69.0212C69.0404 14.9754 68.9912 14.6651 68.877 14.3763C68.7629 14.0876 68.5867 13.8274 68.3609 13.6143C67.7948 13.1857 67.0919 12.9781 66.3838 13.0304C65.7739 13.0313 65.1679 13.1277 64.5879 13.3163C64.0437 13.4838 63.5337 13.7469 63.0819 14.0935L61.894 11.7781C62.5772 11.3107 63.336 10.9647 64.1369 10.7554C65.0121 10.5163 65.9154 10.3957 66.8227 10.397C68.5944 10.397 69.9541 10.8238 70.9017 11.6775ZM68.083 19.5617C68.5224 19.2985 68.8536 18.8873 69.0172 18.402V17.2343H66.7421C65.3811 17.2343 64.7006 17.6799 64.7006 18.5711C64.6954 18.7675 64.7381 18.9622 64.8251 19.1383C64.9121 19.3144 65.0408 19.4667 65.1999 19.5818C65.6053 19.851 66.0873 19.981 66.573 19.9523C67.1027 19.9562 67.6233 19.8156 68.079 19.5456L68.083 19.5617Z" fill="#FCFCFC"/>
<path d="M86.6703 6.22925V21.9977H83.5053V20.681C82.6839 21.6716 81.4933 22.1668 79.9337 22.1668C78.9147 22.1822 77.909 21.9339 77.0143 21.4461C76.1463 20.97 75.4334 20.2543 74.9607 19.3844C74.4509 18.4319 74.1957 17.3639 74.2198 16.2839C74.1963 15.2026 74.4514 14.1334 74.9607 13.1793C75.4334 12.3094 76.1463 11.5937 77.0143 11.1176C77.9097 10.6314 78.9149 10.3833 79.9337 10.3969C80.5706 10.3617 81.2074 10.4672 81.799 10.7059C82.3905 10.9446 82.9222 11.3107 83.3563 11.778V6.22925H86.6703ZM82.5913 18.5871C82.8748 18.277 83.0941 17.9138 83.2365 17.5185C83.3788 17.1231 83.4415 16.7035 83.4208 16.2839C83.4418 15.8635 83.3793 15.4432 83.2369 15.0472C83.0946 14.6512 82.8751 14.2873 82.5913 13.9766C82.3243 13.6947 82.0009 13.4723 81.6422 13.3238C81.2835 13.1753 80.8976 13.1041 80.5095 13.1149C80.1178 13.1043 79.7283 13.1754 79.3657 13.3238C79.0031 13.4721 78.6754 13.6945 78.4035 13.9766C78.1202 14.2875 77.9014 14.6515 77.7597 15.0475C77.618 15.4436 77.5563 15.8638 77.5781 16.2839C77.5566 16.7033 77.6185 17.1228 77.7602 17.5181C77.9019 17.9135 78.1205 18.2768 78.4035 18.5871C78.6754 18.8692 79.0031 19.0916 79.3657 19.2399C79.7283 19.3883 80.1178 19.4594 80.5095 19.4488C80.8976 19.4595 81.2835 19.3883 81.6422 19.2399C82.0009 19.0914 82.3243 18.869 82.5913 18.5871Z" fill="#FCFCFC"/>
<path d="M100.019 17.2181H91.3693C91.5056 17.8997 91.9011 18.5017 92.4726 18.8973C93.1086 19.3228 93.862 19.5382 94.6269 19.5133C95.1756 19.5253 95.7218 19.4352 96.2375 19.2476C96.7176 19.0556 97.1543 18.7694 97.5221 18.406L99.2857 20.3187C98.212 21.5508 96.6389 22.1669 94.5665 22.1669C93.3833 22.1912 92.2113 21.9331 91.1478 21.4139C90.1972 20.9514 89.4002 20.2244 88.8526 19.3201C88.3074 18.4025 88.0285 17.3511 88.0473 16.2839C88.0346 15.22 88.3131 14.1729 88.8526 13.2559C89.3623 12.3697 90.1063 11.6411 91.0029 11.1499C91.9527 10.6605 93.0048 10.4024 94.0734 10.3968C95.1419 10.3912 96.1967 10.6382 97.1516 11.1177C98.0489 11.589 98.7912 12.309 99.2898 13.1915C99.82 14.149 100.087 15.23 100.063 16.3242C100.074 16.3698 100.059 16.6678 100.019 17.2181ZM92.2592 13.5418C91.7363 13.9889 91.4025 14.6178 91.325 15.3014H96.9623C96.8771 14.623 96.54 14.0014 96.0179 13.5598C95.4958 13.1183 94.8268 12.8891 94.1437 12.9176C93.461 12.8932 92.7923 13.1147 92.2592 13.5418Z" fill="#FCFCFC"/>
<path d="M119.919 11.6772C120.759 12.5174 121.18 13.7818 121.183 15.4703V21.9976H117.869V15.9576C117.921 15.2413 117.722 14.5292 117.305 13.9442C117.106 13.7166 116.857 13.5376 116.578 13.4211C116.299 13.3045 115.997 13.2534 115.695 13.2718C115.35 13.2557 115.006 13.3151 114.687 13.4459C114.367 13.5766 114.081 13.7756 113.846 14.0288C113.349 14.6647 113.107 15.4627 113.166 16.2676V21.9976H109.852V15.9576C109.852 14.1617 109.13 13.2624 107.685 13.2597C107.344 13.2444 107.003 13.3042 106.687 13.435C106.371 13.5658 106.088 13.7644 105.857 14.0167C105.402 14.516 105.177 15.265 105.177 16.2555V21.9976H101.875V10.5658H105.04V11.8826C105.469 11.3999 106.004 11.0224 106.602 10.7793C107.241 10.5196 107.926 10.3896 108.616 10.3967C109.375 10.3834 110.128 10.546 110.814 10.8719C111.455 11.1846 111.998 11.6664 112.385 12.2651C112.854 11.6626 113.464 11.1843 114.16 10.8719C114.898 10.5413 115.699 10.3751 116.508 10.3846C117.135 10.3561 117.76 10.456 118.347 10.6783C118.933 10.9006 119.468 11.2405 119.919 11.6772Z" fill="#FCFCFC"/>
<path d="M134.87 10.5659L129.703 22.6983C129.18 24.019 128.532 24.9452 127.758 25.4848C126.933 26.0372 125.956 26.3187 124.964 26.2901C124.366 26.2884 123.771 26.1961 123.2 26.0163C122.678 25.8636 122.194 25.6029 121.779 25.2512L122.987 22.8916C123.246 23.1206 123.545 23.3007 123.869 23.4231C124.183 23.5474 124.517 23.6116 124.855 23.6124C125.25 23.6303 125.64 23.5155 125.963 23.2862C126.3 22.9872 126.561 22.6116 126.724 22.1909L126.768 22.0822L121.815 10.5659H125.23L128.451 18.3213L131.672 10.5659H134.87Z" fill="#FCFCFC"/>
<path d="M14.7459 5.9917H17.7176L10.687 26.0083H7.73145L14.7459 5.9917Z" fill="#DA0175"/>
<path d="M20.6732 5.9917H23.6287L16.6143 26.0083H13.6587L20.6732 5.9917Z" fill="#DA0175"/>
</svg>
