<svg width="135" height="33" viewBox="0 0 135 33" fill="none" xmlns="http://www.w3.org/2000/svg">
<path d="M23.5202 0.796143H7.84035C6.80021 0.806665 5.77232 1.02197 4.81538 1.42976C3.85845 1.83756 2.99122 2.42985 2.2632 3.17282C1.53518 3.9158 0.960646 4.7949 0.572395 5.75992C0.184144 6.72495 -0.0102161 7.757 0.000413597 8.79715V24.7951C-0.0199837 26.8955 0.794322 28.918 2.26439 30.4183C3.73446 31.9186 5.74002 32.7738 7.84035 32.7961H23.5202C25.6206 32.7738 27.6261 31.9186 29.0962 30.4183C30.5663 28.918 31.3806 26.8955 31.3602 24.7951V8.79715C31.3708 7.757 31.1764 6.72495 30.7882 5.75992C30.3999 4.7949 29.8254 3.9158 29.0974 3.17282C28.3694 2.42985 27.5021 1.83756 26.5452 1.42976C25.5883 1.02197 24.5604 0.806665 23.5202 0.796143V0.796143ZM23.5202 3.15578C24.9997 3.17278 26.4121 3.77576 27.4478 4.83251C28.4834 5.88927 29.0577 7.31357 29.0448 8.79312V24.7951C29.0577 26.2747 28.4834 27.699 27.4478 28.7557C26.4121 29.8125 24.9997 30.4155 23.5202 30.4325H7.84035C6.36047 30.4155 4.94766 29.8126 3.9114 28.756C2.87513 27.6994 2.29991 26.2751 2.31173 24.7951V8.79715C2.29991 7.31722 2.87513 5.89293 3.9114 4.83629C4.94766 3.77965 6.36047 3.1768 7.84035 3.1598L23.5202 3.15578Z" fill="#2E2E36"/>
<path d="M46.3797 12.4736C47.33 13.3138 47.8051 14.5849 47.8051 16.2869V22.8101H44.6965V21.3726C44.0711 22.4463 42.91 22.9765 41.2135 22.9631C40.4308 22.9889 39.6519 22.8446 38.9303 22.5403C38.3251 22.2759 37.8101 21.8407 37.4485 21.288C37.106 20.7553 36.9281 20.1334 36.9371 19.5002C36.919 19.0153 37.0196 18.5333 37.2301 18.0961C37.4406 17.6589 37.7547 17.2797 38.1451 16.9915C38.9505 16.3822 40.1867 16.0788 41.8537 16.0815H44.4912C44.5103 15.7716 44.4611 15.4613 44.347 15.1725C44.2328 14.8837 44.0566 14.6235 43.8308 14.4104C43.2647 13.9819 42.5618 13.7743 41.8537 13.8266C41.2438 13.8274 40.6378 13.9239 40.0578 14.1125C39.5164 14.2808 39.0092 14.5439 38.5599 14.8896L37.3519 12.5743C38.0336 12.1069 38.7911 11.7608 39.5907 11.5515C40.4673 11.3127 41.3719 11.1921 42.2805 11.1931C44.0657 11.1931 45.4321 11.6199 46.3797 12.4736ZM43.561 20.3578C44.0016 20.0951 44.3343 19.6839 44.4992 19.1982V18.0304H42.2241C40.8631 18.0304 40.1826 18.476 40.1826 19.3673C40.1786 19.5599 40.2208 19.7507 40.3055 19.9237C40.3903 20.0967 40.5152 20.247 40.6699 20.3619C41.0752 20.631 41.5572 20.7611 42.0429 20.7323C42.5726 20.7431 43.095 20.608 43.553 20.3417L43.561 20.3578Z" fill="#2E2E36"/>
<path d="M52.319 22.21C51.3818 21.7371 50.5953 21.0119 50.048 20.1161C49.4996 19.1999 49.2204 18.1476 49.2426 17.08C49.2203 16.0111 49.4994 14.9575 50.048 14.0398C50.5953 13.1441 51.3818 12.4189 52.319 11.946C53.337 11.4322 54.4647 11.1738 55.6048 11.193C56.7032 11.1666 57.7897 11.4261 58.7577 11.946C59.6359 12.4263 60.3288 13.1858 60.7267 14.1043L58.1537 15.4854C57.9171 15.0043 57.5483 14.6006 57.0904 14.3218C56.6325 14.0429 56.1046 13.9004 55.5686 13.911C55.1719 13.8998 54.7771 13.9693 54.4082 14.1153C54.0392 14.2614 53.7038 14.4809 53.4223 14.7606C53.1317 15.07 52.9066 15.4349 52.7606 15.8335C52.6146 16.2321 52.5507 16.6561 52.5727 17.08C52.551 17.5033 52.6151 17.9265 52.7611 18.3244C52.9071 18.7223 53.132 19.0866 53.4223 19.3953C53.7033 19.6758 54.0386 19.8958 54.4076 20.0419C54.7767 20.188 55.1718 20.2571 55.5686 20.245C56.1035 20.2582 56.6309 20.1166 57.0874 19.8373C57.5438 19.558 57.9099 19.1529 58.1416 18.6705L60.7147 20.0758C60.3051 20.9785 59.6143 21.7244 58.7456 22.2019C57.779 22.7264 56.6921 22.9887 55.5927 22.963C54.4567 22.9802 53.3334 22.7218 52.319 22.21Z" fill="#2E2E36"/>
<path d="M70.9021 12.4736C71.8524 13.3138 72.3276 14.5849 72.3276 16.2869V22.8101H69.223V21.3726C68.6029 22.4463 67.4419 22.9765 65.7399 22.9631C64.9557 22.9832 64.1766 22.832 63.4568 22.5202C62.8554 22.261 62.3421 21.833 61.979 21.288C61.6365 20.7553 61.4586 20.1334 61.4676 19.5002C61.4505 19.0154 61.5516 18.5338 61.762 18.0968C61.9725 17.6597 62.286 17.2804 62.6756 16.9915C63.481 16.3822 64.7172 16.0788 66.3842 16.0815H69.0217C69.0408 15.7716 68.9916 15.4613 68.8775 15.1725C68.7634 14.8837 68.5871 14.6235 68.3613 14.4104C67.7952 13.9819 67.0923 13.7743 66.3842 13.8266C65.7743 13.8274 65.1683 13.9239 64.5883 14.1125C64.0441 14.2799 63.5341 14.5431 63.0823 14.8896L61.8945 12.5743C62.5777 12.1069 63.3364 11.7609 64.1373 11.5515C65.0125 11.3124 65.9158 11.1919 66.8231 11.1931C68.5949 11.1931 69.9545 11.62 70.9021 12.4736ZM68.0835 20.3578C68.5228 20.0946 68.854 19.6835 69.0176 19.1982V18.0304H66.7426C65.3816 18.0304 64.7011 18.476 64.7011 19.3673C64.6958 19.5636 64.7386 19.7583 64.8256 19.9344C64.9126 20.1106 65.0412 20.2628 65.2004 20.378C65.6058 20.6471 66.0877 20.7772 66.5735 20.7484C67.1031 20.7524 67.6238 20.6118 68.0794 20.3417L68.0835 20.3578Z" fill="#2E2E36"/>
<path d="M86.6706 7.02539V22.7939H83.5056V21.4771C82.6842 22.4677 81.4936 22.963 79.934 22.963C78.915 22.9784 77.9094 22.7301 77.0146 22.2422C76.1466 21.7661 75.4337 21.0505 74.961 20.1805C74.4512 19.2281 74.196 18.1601 74.2201 17.08C74.1966 15.9987 74.4517 14.9296 74.961 13.9754C75.4337 13.1055 76.1466 12.3898 77.0146 11.9138C77.91 11.4276 78.9152 11.1794 79.934 11.193C80.5709 11.1579 81.2077 11.2634 81.7993 11.5021C82.3908 11.7408 82.9225 12.1068 83.3567 12.5742V7.02539H86.6706ZM82.5916 19.3833C82.8751 19.0732 83.0944 18.71 83.2368 18.3146C83.3791 17.9193 83.4418 17.4997 83.4211 17.08C83.4421 16.6597 83.3796 16.2394 83.2372 15.8433C83.0949 15.4473 82.8754 15.0834 82.5916 14.7727C82.3246 14.4909 82.0012 14.2684 81.6425 14.12C81.2838 13.9715 80.8979 13.9003 80.5098 13.911C80.1182 13.9004 79.7286 13.9715 79.366 14.1199C79.0034 14.2683 78.6757 14.4906 78.4038 14.7727C78.1205 15.0836 77.9017 15.4476 77.76 15.8437C77.6183 16.2397 77.5566 16.6599 77.5784 17.08C77.5569 17.4994 77.6188 17.9189 77.7605 18.3143C77.9022 18.7096 78.1209 19.073 78.4038 19.3833C78.6757 19.6654 79.0034 19.8877 79.366 20.0361C79.7286 20.1844 80.1182 20.2556 80.5098 20.245C80.8979 20.2557 81.2838 20.1845 81.6425 20.036C82.0012 19.8875 82.3246 19.6651 82.5916 19.3833Z" fill="#2E2E36"/>
<path d="M100.019 18.0143H91.3697C91.506 18.6958 91.9016 19.2978 92.473 19.6934C93.1091 20.1189 93.8625 20.3344 94.6273 20.3095C95.176 20.3214 95.7222 20.2313 96.238 20.0437C96.718 19.8517 97.1548 19.5656 97.5225 19.2021L99.2862 21.1148C98.2124 22.347 96.6393 22.9631 94.5669 22.9631C93.3837 22.9873 92.2118 22.7292 91.1483 22.2101C90.1976 21.7475 89.4007 21.0205 88.8531 20.1162C88.3078 19.1986 88.029 18.1473 88.0477 17.0801C88.0351 16.0162 88.3135 14.9691 88.8531 14.052C89.3628 13.1659 90.1067 12.4372 91.0033 11.9461C91.9532 11.4566 93.0053 11.1986 94.0738 11.193C95.1424 11.1874 96.1971 11.4344 97.152 11.9139C98.0493 12.3852 98.7917 13.1052 99.2902 13.9876C99.8204 14.9451 100.087 16.0261 100.063 17.1203C100.074 17.166 100.059 17.464 100.019 18.0143ZM92.2596 14.3379C91.7367 14.7851 91.4029 15.4139 91.3254 16.0976H96.9628C96.8775 15.4191 96.5404 14.7975 96.0183 14.356C95.4962 13.9144 94.8273 13.6852 94.1441 13.7138C93.4615 13.6893 92.7927 13.9108 92.2596 14.3379Z" fill="#2E2E36"/>
<path d="M119.919 12.4736C120.759 13.3138 121.181 14.5782 121.183 16.2667V22.794H117.869V16.754C117.921 16.0377 117.722 15.3256 117.306 14.7406C117.106 14.513 116.857 14.334 116.578 14.2175C116.299 14.1009 115.997 14.0498 115.695 14.0682C115.35 14.0521 115.006 14.1115 114.687 14.2422C114.368 14.373 114.081 14.572 113.847 14.8252C113.35 15.4611 113.107 16.2591 113.166 17.064V22.794H109.852V16.754C109.852 14.9581 109.13 14.0588 107.686 14.0561C107.344 14.0408 107.004 14.1006 106.688 14.2314C106.372 14.3622 106.088 14.5608 105.858 14.8131C105.403 15.3124 105.177 16.0614 105.177 17.0519V22.794H101.875V11.3622H105.04V12.679C105.47 12.1962 106.004 11.8187 106.603 11.5756C107.242 11.316 107.926 11.186 108.616 11.1931C109.376 11.1798 110.128 11.3424 110.815 11.6683C111.455 11.981 111.998 12.4627 112.385 13.0615C112.854 12.459 113.464 11.9807 114.161 11.6683C114.899 11.3377 115.7 11.1715 116.508 11.181C117.135 11.1525 117.761 11.2524 118.347 11.4747C118.934 11.697 119.469 12.0369 119.919 12.4736Z" fill="#2E2E36"/>
<path d="M134.87 11.3621L129.704 23.4944C129.18 24.8152 128.532 25.7413 127.759 26.2809C126.934 26.8333 125.957 27.1148 124.964 27.0862C124.366 27.0846 123.771 26.9923 123.201 26.8124C122.678 26.6597 122.194 26.3991 121.779 26.0474L122.987 23.6877C123.247 23.9167 123.545 24.0968 123.869 24.2192C124.183 24.3435 124.518 24.4077 124.856 24.4085C125.251 24.4264 125.641 24.3116 125.963 24.0823C126.301 23.7834 126.562 23.4078 126.724 22.9871L126.768 22.8784L121.815 11.3621H125.23L128.451 19.1174L131.673 11.3621H134.87Z" fill="#2E2E36"/>
<path d="M14.7461 6.78784H17.7178L10.6872 26.8044H7.73163L14.7461 6.78784Z" fill="#DA0175"/>
<path d="M20.6734 6.78784H23.629L16.6145 26.8044H13.6589L20.6734 6.78784Z" fill="#DA0175"/>
</svg>
