<svg width="16" height="16" viewBox="0 0 16 16" fill="none" xmlns="http://www.w3.org/2000/svg">
<path d="M13.9996 11.002V12.8121C14.0003 12.9801 13.9659 13.1464 13.8986 13.3004C13.8313 13.4544 13.7325 13.5926 13.6087 13.7062C13.4849 13.8198 13.3387 13.9063 13.1795 13.9601C13.0203 14.0139 12.8517 14.0339 12.6843 14.0188C10.8277 13.8171 9.04426 13.1826 7.47734 12.1665C6.01953 11.2401 4.78356 10.0042 3.8572 8.54636C2.83752 6.97232 2.20294 5.18023 2.0049 3.31525C1.98982 3.14841 2.00965 2.98025 2.06312 2.82148C2.11659 2.66272 2.20254 2.51683 2.31548 2.3931C2.42843 2.26937 2.5659 2.17051 2.71915 2.10282C2.87239 2.03513 3.03805 2.00009 3.20558 1.99994H5.01565C5.30846 1.99705 5.59233 2.10074 5.81435 2.29168C6.03636 2.48261 6.18138 2.74776 6.22236 3.03771C6.29876 3.61697 6.44044 4.18573 6.64471 4.73314C6.72589 4.9491 6.74346 5.1838 6.69534 5.40943C6.64721 5.63507 6.53542 5.84218 6.3732 6.00622L5.60694 6.77249C6.46585 8.28302 7.71655 9.53372 9.22708 10.3926L9.99334 9.62637C10.1574 9.46414 10.3645 9.35235 10.5901 9.30423C10.8158 9.25611 11.0505 9.27368 11.2664 9.35485C11.8138 9.55912 12.3826 9.70081 12.9619 9.7772C13.2549 9.81855 13.5226 9.96618 13.714 10.192C13.9053 10.4178 14.007 10.7061 13.9996 11.002Z" stroke="#374952" stroke-width="1.2" stroke-linecap="round" stroke-linejoin="round"/>
</svg>
