<svg width="20" height="23" viewBox="0 0 20 23" fill="none" xmlns="http://www.w3.org/2000/svg">
<path d="M8.25 0.625C7.28356 0.625 6.5 1.40856 6.5 2.375V3.25H6.32483L0.375 4.125V5.4375H19.625V4.125L13.6752 3.25H13.5V2.375C13.5 1.40856 12.7164 0.625 11.75 0.625H8.25ZM8.25 2.375H11.75V3.25H8.25V2.375ZM1.25 6.3125L2.43176 20.891C2.50526 21.7997 3.26489 22.5 4.17664 22.5H15.8242C16.736 22.5 17.4943 21.8005 17.5682 20.8918L18.7167 6.75L1.25 6.3125ZM4.75 9.375C5.23344 9.375 5.625 9.76656 5.625 10.25V20.3125H4.3125L3.875 10.25C3.875 9.76656 4.26656 9.375 4.75 9.375ZM10 9.375C10.7249 9.375 11.3125 9.96256 11.3125 10.6875V20.3125H8.6875V10.6875C8.6875 9.96256 9.27506 9.375 10 9.375ZM15.25 9.375C15.7334 9.375 16.125 9.76656 16.125 10.25L15.6875 20.3125H14.375V10.25C14.375 9.76656 14.7666 9.375 15.25 9.375Z" fill="#374952"/>
</svg>
